<?xml version="1.0" standalone="no"?>
<!DOCTYPE svg PUBLIC "-//W3C//DTD SVG 20010904//EN"
 "http://www.w3.org/TR/2001/REC-SVG-20010904/DTD/svg10.dtd">
<svg version="1.0" xmlns="http://www.w3.org/2000/svg"
 width="1557.000000pt" height="2771.000000pt" viewBox="0 0 1557.000000 2771.000000"
 preserveAspectRatio="xMidYMid meet">

<g transform="translate(0.000000,2771.000000) scale(0.100000,-0.100000)"
fill="#FFFFFF" stroke="none">
<path d="M1920 26906 l0 -806 -405 0 c-331 0 -420 -3 -483 -16 -296 -61 -529
-284 -607 -580 -8 -32 -105 -941 -215 -2019 -109 -1078 -201 -1980 -204 -2005
-4 -39 1454 -20663 1470 -20795 10 -78 60 -223 101 -295 49 -84 199 -234 283
-283 36 -21 108 -52 160 -70 l95 -32 5670 0 5670 0 95 33 c122 42 214 97 301
180 129 121 214 285 239 458 15 109 1470 20616 1471 20734 0 121 -396 4012
-417 4094 -77 296 -310 519 -606 580 -66 14 -174 16 -738 16 l-660 0 0 128 0
128 -5572 673 c-3065 371 -5590 676 -5610 679 l-38 5 0 -807z m12000 -6307 c0
-40 -1338 -18896 -1346 -18967 l-5 -52 -4784 0 -4784 0 -5 42 c-3 24 -307
4296 -676 9493 -368 5198 -671 9465 -673 9483 l-3 32 6138 0 6138 0 0 -31z"/>
<path d="M3217 19163 c-3 -6 1137 -16093 1143 -16120 0 -2 1541 -3 3425 -3
2733 0 3425 3 3426 13 0 6 258 3634 572 8060 315 4427 570 8050 568 8053 -8 7
-9130 4 -9134 -3z"/>
</g>
</svg>
